<svg xmlns="http://www.w3.org/2000/svg" width="24" height="22" viewBox="0 0 24 22">
    <path fill="#161F3D" fill-rule="nonzero" d="M22.048 1.983A6.584 6.584 0 0 0 17.354.041a6.6 6.6 0 0 0-4.698 1.947L12 2.644l-.666-.666A6.617 6.617 0 0 0 6.63.025c-1.77 0-3.438.692-4.689 1.943A6.575 6.575 0 0 0 0 6.666c0 1.775.697 3.437 1.953 4.693l9.549 9.55a.685.685 0 0 0 .966.005l9.57-9.534a6.6 6.6 0 0 0 1.947-4.699 6.57 6.57 0 0 0-1.937-4.698zm-.977 8.426l-9.086 9.05-9.066-9.066a5.235 5.235 0 0 1-1.546-3.727 5.21 5.21 0 0 1 1.54-3.722 5.228 5.228 0 0 1 3.718-1.54c1.408 0 2.735.549 3.732 1.545l1.149 1.15c.27.269.702.269.971 0l1.14-1.14a5.244 5.244 0 0 1 3.726-1.545c1.404 0 2.726.549 3.722 1.54a5.23 5.23 0 0 1 1.541 3.727 5.21 5.21 0 0 1-1.54 3.728z" opacity=".5"/>
</svg>
