<svg xmlns="http://www.w3.org/2000/svg" width="24" height="20" viewBox="0 0 24 20">
    <path fill="#161F3D" fill-rule="nonzero" d="M19.078.023H4.922A4.927 4.927 0 0 0 0 4.945v7.602a4.842 4.842 0 0 0 3.482 4.656L5.86 19.58a.704.704 0 0 0 .995 0l2.18-2.181h10.044A4.927 4.927 0 0 0 24 12.477V4.945A4.927 4.927 0 0 0 19.078.023zm3.516 12.454a3.52 3.52 0 0 1-3.516 3.516H8.743a.703.703 0 0 0-.497.206l-1.89 1.89-2.012-2.013a.702.702 0 0 0-.327-.185 3.439 3.439 0 0 1-2.61-3.344V4.945A3.52 3.52 0 0 1 4.921 1.43h14.156a3.52 3.52 0 0 1 3.516 3.515v7.532z" opacity=".5"/>
</svg>
