<svg xmlns="http://www.w3.org/2000/svg" width="22" height="27" viewBox="0 0 22 27">
    <g fill="none" fill-rule="evenodd" opacity=".3">
        <path d="M-2 .804h26v25.717H-2z"/>
        <g fill="#161F3D">
            <path d="M21.077 22.428l-1.813-3.057a9.161 9.161 0 0 1-1.28-4.672V12.02c0-3.381-2.23-6.24-5.28-7.163V2.941c0-1.178-.947-2.137-2.112-2.137-1.164 0-2.112.959-2.112 2.137v1.917C5.43 5.78 3.2 8.64 3.2 12.021v2.678c0 1.645-.442 3.26-1.278 4.671L.109 22.427a.539.539 0 0 0-.007.539.526.526 0 0 0 .459.271h20.063c.19 0 .365-.104.46-.27a.541.541 0 0 0-.007-.539zM7.267 24.305c.596 1.259 1.856 2.137 3.325 2.137 1.47 0 2.73-.878 3.325-2.137h-6.65z"/>
        </g>
    </g>
</svg>
