<svg xmlns="http://www.w3.org/2000/svg" width="26" height="25" viewBox="0 0 26 25">
    <g fill="none" fill-rule="evenodd" opacity=".9">
        <path d="M0 .804h26v25.717H0z"/>
        <g fill="#161F3D">
            <path d="M25.533 11.454l-3.936-3.835V3.19c0-.8-.666-1.45-1.49-1.45-.82 0-1.487.65-1.487 1.45v1.53l-2.93-2.855c-1.45-1.411-3.968-1.409-5.414.002l-9.84 9.588a1.425 1.425 0 0 0 0 2.05 1.516 1.516 0 0 0 2.106 0l9.84-9.587c.32-.31.885-.31 1.204-.001l9.84 9.589c.293.283.673.424 1.053.424.382 0 .763-.14 1.054-.424a1.424 1.424 0 0 0 0-2.051z"/>
            <path d="M13.501 6.67a.744.744 0 0 0-1.034 0L3.812 15.1a.705.705 0 0 0-.215.505v6.15c0 1.442 1.201 2.612 2.682 2.612h4.286v-6.466h4.838v6.466h4.285c1.481 0 2.682-1.17 2.682-2.613v-6.15a.702.702 0 0 0-.214-.504l-8.655-8.43z"/>
        </g>
    </g>
</svg>
