<svg xmlns="http://www.w3.org/2000/svg" xmlns:xlink="http://www.w3.org/1999/xlink" width="163" height="164" viewBox="0 0 163 164">
    <defs>
        <filter id="a" width="266.6%" height="266.6%" x="-83.3%" y="-83.3%" filterUnits="objectBoundingBox">
            <feGaussianBlur in="SourceGraphic" stdDeviation="19"/>
        </filter>
        <path id="b" d="M0 68.69V15.904C0 7.166 7.083.084 15.82.084h52.787c8.737 0 15.82 7.082 15.82 15.82V68.69c0 8.737-7.083 15.82-15.82 15.82H15.82C7.083 84.51 0 77.428 0 68.69"/>
    </defs>
    <g fill="none" fill-rule="evenodd">
        <path fill="#2B2E38" d="M8 78.188V35.406c0-7.082 5.74-12.823 12.822-12.823h42.783c7.081 0 12.822 5.741 12.822 12.823v42.782c0 7.082-5.74 12.823-12.822 12.823H20.822C13.741 91.01 8 85.27 8 78.188" filter="url(#a)" opacity=".4" transform="translate(40 26)"/>
        <g transform="translate(40 26.5)">
            <mask id="c" fill="#fff">
                <use xlink:href="#b"/>
            </mask>
            <use fill="#FFF" xlink:href="#b"/>
            <path fill="#000" d="M122.516 138.217L27 67l10.889-9.5s15.712-1.356 16.828-11c.354-3.055 2.756-13.599 1.98-18.433-.33-2.054-2.848.928-3.712-.567-3.52-6.093-8.167 11 3.712-4C78.107 43.202 125 86.5 125 86.5l-2.484 51.717z" mask="url(#c)" opacity=".02"/>
            <g fill="#ED547B" fill-rule="nonzero" mask="url(#c)">
                <path d="M42.5 18C30.627 18 21 27.613 21 39.474c0 6.135 2.589 11.653 6.717 15.564L26.998 67l10.212-6.73c1.695.426 3.462.68 5.29.68 11.875 0 21.5-9.616 21.5-21.474C64.002 27.613 54.375 18 42.5 18zm7.24 10.518h2.504l-1.763 7.313h-1.794l1.054-7.313zm-.451 8.12c.79 0 1.342.565 1.342 1.357 0 .92-.678 1.582-1.586 1.582-.793 0-1.307-.563-1.307-1.323-.004-.857.646-1.616 1.55-1.616zM46.6 28.067c.679 0 1.165.451 1.165 1.147 0 .823-.63 1.307-1.373 1.307-.646 0-1.132-.436-1.132-1.131a1.32 1.32 0 0 1 1.34-1.323zm.663 3.437l-1.503 7.894h-2.327l1.503-7.894h2.327zm-12.44-2.986h2.329l-.809 4.247h3.962l.808-4.247h2.329L41.373 39.4h-2.329l.857-4.569h-3.944l-.872 4.569h-2.33l2.068-10.882zM42.5 53.972c-5.938 0-10.752-4.705-10.752-7.415 0-2.712 4.813.11 10.752.11 5.938 0 10.75-2.824 10.75-.11 0 2.708-4.812 7.415-10.75 7.415z"/>
            </g>
        </g>
    </g>
</svg>
