<svg xmlns="http://www.w3.org/2000/svg" width="26" height="22" viewBox="0 0 26 22">
    <g fill="none" fill-rule="evenodd" opacity=".3">
        <path d="M0-1.196h26v25.717H0z"/>
        <g fill="#161F3D">
            <path d="M23.975 6.418h-.707v7.82c0 1.218-.703 2.32-2.114 2.32H7.333v.37c0 1.077 1.215 2.164 2.463 2.164h10.567l4.043 2.395-.587-2.395h.156c1.247 0 1.81-1.084 1.81-2.163V8.275c0-1.077-.563-1.857-1.81-1.857z"/>
            <path fill-rule="nonzero" d="M19.09.985H3.039C1.625.985 0 2.25 0 3.468v9.801c0 1.122 1.377 1.933 2.698 2.058l-.86 3.288 5.51-3.265H19.09c1.412 0 2.715-.863 2.715-2.08V3.467c0-1.219-1.304-2.483-2.715-2.483zM5.488 9.26c-.801 0-1.45-.654-1.45-1.46 0-.808.649-1.462 1.45-1.462.8 0 1.45.654 1.45 1.461s-.65 1.461-1.45 1.461zm5.416 0c-.8 0-1.45-.654-1.45-1.46 0-.808.65-1.462 1.45-1.462.801 0 1.45.654 1.45 1.461s-.649 1.461-1.45 1.461zm5.417 0a1.456 1.456 0 0 1-1.45-1.46c0-.808.65-1.462 1.45-1.462.8 0 1.45.654 1.45 1.461s-.65 1.461-1.45 1.461z"/>
        </g>
    </g>
</svg>
